<?xml version="1.0" encoding="utf-8"?>
<!-- Generator: Adobe Illustrator 22.1.0, SVG Export Plug-In . SVG Version: 6.00 Build 0)  -->
<svg version="1.1" id="Layer_1" xmlns="http://www.w3.org/2000/svg" xmlns:xlink="http://www.w3.org/1999/xlink" x="0px" y="0px"
	 viewBox="0 0 150 150" style="enable-background:new 0 0 150 150;" xml:space="preserve">
<style type="text/css">
	.st0{fill:none;stroke:#414042;stroke-width:2;stroke-miterlimit:10;}
	.st1{fill:none;stroke:#FAA41A;stroke-width:2;stroke-miterlimit:10;}
</style>
<path class="st0" d="M115.8,97.8v-5.5 M115.8,74.7v8.4 M35.8,84v-8.8 M35.8,98.7v-5 M67.9,115.1h14.1 M115.8,73.4v-1.3h9.1
	l-17.1-17.5V37.1h-9.1v8.2L75.8,21.7L26.7,72.1h9.1v1.3"/>
<path class="st0" d="M35.8,93.8c2.4,2.1,4.2,3.6,4.2,3.6c1.3,2.7-3.1,1.9-3.1,1.9c-0.3-0.2-0.7-0.3-1-0.5 M35.8,84
	c-7.2-3.8-12.5-5.5-12.5-5.5c-1.1,2.6,7.2,10.6,12.5,15.3 M67.9,115.1C60.8,99.6,46.3,89.5,35.8,84 M35.8,98.7
	c-16.6-8.7-28-30.9-28.5-33c-0.6-2.1-3.2-4.2-4.8-3C0.6,64.2,1,67.3,1,67.3c6.2,61,70.8,61,70.8,61c-0.7-4.8-2-9.2-3.9-13.2"/>
<path class="st0" d="M115.8,83.2c6.3-3.2,10.9-4.7,10.9-4.7c1,2.4-5.7,9.1-10.9,13.8 M82.1,115.1c-1.8,4-3.2,8.4-3.9,13.2
	c0,0,64.5,0,70.8-61c0,0,0.4-3.1-1.4-4.6c-1.6-1.2-4.3,1-4.8,3c-0.6,2-11.2,22.9-27,32.1 M115.8,92.3c-3.2,2.9-5.7,5-5.7,5
	c-1.3,2.7,3.1,1.9,3.1,1.9c0.9-0.4,1.8-0.9,2.6-1.4 M115.8,83.2c-10.6,5.4-26.2,15.6-33.7,32"/>
<path class="st1" d="M115.8,74.7 M115.8,73.4 M35.8,73.4 M35.8,75.2 M35.8,75.2C57.4,81.5,70.5,108,70.5,108
	c-9.8-43.2,1.3-59.5,1.3-59.5c-13.5,7.9-12.4,29.7-12.4,29.7c-5.9-4.2-16.3-4.9-23.7-4.9 M35.8,73.4c-4.8,0-8.3,0.4-8.3,0.4
	c2.9,0.1,5.6,0.6,8.3,1.4 M58.3,68.1c0-2.8-2.2-5-5-5s-5,2.2-5,5c0,2.8,2.2,5,5,5S58.3,70.9,58.3,68.1z M115.8,73.4
	c-7.3-0.2-18.9,0.4-25.2,4.9c0,0,1.1-21.8-12.4-29.7c0,0,11.2,16.2,1.3,59.5c0,0,13.8-27.8,36.3-33.3 M115.8,74.7
	c2.2-0.5,4.4-0.9,6.7-0.9c0,0-2.7-0.3-6.7-0.4 M101.8,68.1c0-2.8-2.2-5-5-5c-2.8,0-5,2.2-5,5c0,2.8,2.2,5,5,5
	C99.5,73.2,101.8,70.9,101.8,68.1z"/>
</svg>
