<svg xmlns="http://www.w3.org/2000/svg" id="Layer_1" x="0" y="0" version="1.1" viewBox="0 0 45 45" xml:space="preserve"><style>.st0,.st1{fill:none;stroke:#56575b;stroke-width:1.0311;stroke-miterlimit:10}.st1{stroke-width:.5728}</style><path d="M24.5 30.9H6.4c-.2-2-1.8-3.7-3.9-3.8v-9c2-.2 3.7-1.8 3.9-3.9h23.8c.2 2 1.8 3.7 3.9 3.9v7.1" class="st0"/><path d="M24.8 32.9H.4V12h35.8v13.3" class="st0"/><circle cx="18.3" cy="22.5" r="4.8" class="st0"/><path d="M8.8 11.9V4.4h35.8v20.9h-8.4" class="st0"/><path d="M22.9 11.9c.9-1.1 2.2-1.8 3.8-1.8 1.5 0 2.9.7 3.8 1.8" class="st0"/><path d="M10.9 12v-1.7c2-.2 3.7-1.8 3.9-3.9h23.8c.2 2 1.8 3.7 3.9 3.9v9c-2 .2-3.7 1.8-3.9 3.9h-2.5" class="st0"/><path d="M16.6 20.3h3.5M17.1 21.3h2.6M17.9 20.3s1 .1 1 1c0 0 0 1-1.7.9l2 2.6" class="st1"/><g><circle cx="32.7" cy="32.6" r="8" class="st0"/><path fill="none" stroke="#f9a027" stroke-miterlimit="10" stroke-width="1.05" d="M28.7 34.8l4-4 4 4"/></g></svg>