<svg xmlns="http://www.w3.org/2000/svg" xmlns:xlink="http://www.w3.org/1999/xlink" id="Layer_1" x="0" y="0" version="1.1" viewBox="0 0 45 45" xml:space="preserve"><style>.st0,.st4{fill:none;stroke:#56575b;stroke-width:1.02;stroke-miterlimit:10}.st4{stroke:#f9a027;stroke-width:.4533}</style><path d="M43.2 29.8c-3 8.5-11.1 14.7-20.7 14.7-9.1 0-16.8-5.5-20.2-13.4" class="st0"/><defs><path id="SVGID_1_" d="M4.2 33.6s-1.1-1.8-1.8-4l-1.6.2-.4 1.1-.8 2.1-.2 2H.7c.1 0 1.6-.4 1.7-.4.1 0 1-.5 1-.5l.8-.5z"/></defs><clipPath id="SVGID_2_"><use overflow="visible" xlink:href="#SVGID_1_"/></clipPath><path fill="#f9a027" d="M2.4 29.6L.8 34.3l5.5-1.1z" clip-path="url(#SVGID_2_)"/><g><path d="M1.8 15.2C4.8 6.7 12.9.5 22.5.5 31.6.5 39.3 6 42.7 13.9" class="st0"/><defs><path id="SVGID_3_" d="M40.8 11.5s1.1 1.8 1.8 4l1.6-.2.4-1.1.8-2.1.2-2h-1.3s-1.6.4-1.7.4c-.1 0-1 .5-1 .5l-.8.5z"/></defs><clipPath id="SVGID_4_"><use overflow="visible" xlink:href="#SVGID_3_"/></clipPath><path fill="#f9a027" d="M42.6 15.4l1.6-4.6-5.5 1.1z" clip-path="url(#SVGID_4_)"/></g><g><path fill="none" stroke="#56575b" stroke-miterlimit="10" stroke-width=".983" d="M27 28.6H13.8c-.1-1.5-1.3-2.7-2.8-2.8v-6.6c1.5-.1 2.7-1.3 2.8-2.8h17.4c.1 1.5 1.3 2.7 2.8 2.8v6.6c-1.5.1-2.7 1.3-2.8 2.8h-4.8"/><path d="M9 14.6h27v15.8H9z" class="st0"/><circle cx="22.5" cy="22.5" r="3.6" class="st0"/><path d="M21.2 20.9h2.7M21.6 21.6h2M22.1 20.9s.8.1.7.7c0 0 0 .8-1.3.7l1.5 2" class="st4"/></g></svg>