<?xml version="1.0" encoding="utf-8"?>
<!-- Generator: Adobe Illustrator 22.0.0, SVG Export Plug-In . SVG Version: 6.00 Build 0)  -->
<svg version="1.1" id="Layer_1" xmlns="http://www.w3.org/2000/svg" xmlns:xlink="http://www.w3.org/1999/xlink" x="0px" y="0px"
	 viewBox="0 0 51 51" style="enable-background:new 0 0 51 51;" xml:space="preserve">
<style type="text/css">
	.st0{fill:none;stroke:#54565A;stroke-width:0.7719;stroke-miterlimit:10;}
	.st1{fill:#54565A;}
	.st2{fill:#FFFFFF;stroke:#FFFFFF;stroke-width:0.1694;stroke-miterlimit:10;}
	.st3{fill:#FFFFFF;}
	.st4{fill:#FFFFFF;stroke:#54565A;stroke-width:0.7719;stroke-miterlimit:10;}
	.st5{fill:#54C8E8;}
	.st6{fill-rule:evenodd;clip-rule:evenodd;fill:#54565A;}
	.st7{fill-rule:evenodd;clip-rule:evenodd;fill:#54C8E8;}
	.st8{fill:#333333;}
	.st9{fill:#FFFFFF;stroke:#54565A;stroke-width:0.7494;stroke-miterlimit:10;}
	.st10{fill:none;stroke:#54565A;stroke-width:0.8122;stroke-miterlimit:10;}
	.st11{fill:#FFFFFF;stroke:#FFFFFF;stroke-width:0.1783;stroke-miterlimit:10;}
	.st12{fill:#FFFFFF;stroke:#54565A;stroke-width:0.8122;stroke-miterlimit:10;}
	.st13{fill:none;stroke:#54C8E8;stroke-width:1.453;stroke-miterlimit:10;}
	.st14{fill:#54565A;stroke:#FFFFFF;stroke-width:0.6423;stroke-miterlimit:10;}
	.st15{fill:#FFFFFF;stroke:#54565A;stroke-width:0.4596;stroke-linecap:round;stroke-linejoin:round;stroke-miterlimit:10;}
	.st16{fill:#FFFFFF;stroke:#54565A;stroke-width:0.9192;stroke-miterlimit:10;}
	.st17{fill:none;stroke:#54C8E8;stroke-width:1.8385;stroke-miterlimit:10;}
	.st18{fill:none;stroke:#FFFFFF;stroke-width:1.1457;stroke-miterlimit:22.9256;}
	.st19{fill:#55575B;}
	.st20{fill:none;stroke:#55575B;stroke-width:0.8005;stroke-miterlimit:10;}
	.st21{fill:#FFFFFF;stroke:#55575B;stroke-width:0.8005;stroke-miterlimit:22.9256;}
	.st22{fill:#5AC3E4;}
	.st23{fill:#FFFFFF;stroke:#55575B;stroke-width:0.6789;stroke-miterlimit:10;}
	.st24{fill:none;stroke:#5A595D;stroke-width:0.9628;stroke-miterlimit:10;}
	.st25{fill:#54565A;stroke:#FFFFFF;stroke-width:0.4838;stroke-miterlimit:10;}
	.st26{fill:#FFFFFF;stroke:#54565A;stroke-width:0.3462;stroke-linecap:round;stroke-linejoin:round;stroke-miterlimit:10;}
	.st27{fill:none;stroke:#67C7E9;stroke-width:2;stroke-miterlimit:10;}
	.st28{fill:none;stroke:#FFFFFF;stroke-width:1.218;stroke-miterlimit:10;}
	.st29{fill:none;stroke:#70C8F2;stroke-width:1.218;stroke-miterlimit:10;}
	.st30{fill:#FFFFFF;stroke:#FFFFFF;stroke-width:0.2526;stroke-miterlimit:10;}
	.st31{fill:#67C7E9;}
	.st32{fill:#5A585B;}
	.st33{fill:none;stroke:#676766;stroke-width:0.921;stroke-miterlimit:10;}
	.st34{fill:#676766;}
	.st35{fill:none;stroke:#70C8F2;stroke-width:0.921;stroke-miterlimit:10;}
	.st36{fill:none;stroke:#54C8E8;stroke-width:0.8973;stroke-miterlimit:10;}
	.st37{fill:#676766;stroke:#676766;stroke-width:1.038;stroke-miterlimit:10;}
	.st38{fill:none;stroke:#FFFFFF;stroke-width:1.038;stroke-miterlimit:10;}
	.st39{fill:none;stroke:#70C8F2;stroke-width:1.038;stroke-miterlimit:10;}
	.st40{fill:none;stroke:#676766;stroke-width:1.038;stroke-miterlimit:10;}
	.st41{fill:none;stroke:#FFFFFF;stroke-width:1.1698;stroke-miterlimit:10;}
	.st42{fill:none;stroke:#70C8F2;stroke-width:1.1698;stroke-miterlimit:10;}
	.st43{fill:#FFFFFF;stroke:#FFFFFF;stroke-width:0.6219;stroke-miterlimit:10;}
	.st44{fill:#54C8E8;stroke:#FFFFFF;stroke-width:0.2073;stroke-miterlimit:10;}
	.st45{fill:#FFFFFF;stroke:#54C8E8;stroke-width:0.8927;stroke-miterlimit:10;}
	.st46{fill:none;stroke:#54C8E8;stroke-width:0.5951;stroke-miterlimit:10;}
	.st47{fill:none;stroke:#FFFFFF;stroke-width:0.5951;stroke-miterlimit:10;}
	.st48{fill:none;stroke:#676766;stroke-width:1.0741;stroke-miterlimit:10;}
	.st49{fill:none;stroke:#70C8F2;stroke-width:1.0741;stroke-miterlimit:10;}
	.st50{fill:none;stroke:#FFFFFF;stroke-width:1.0741;stroke-miterlimit:10;}
	.st51{fill:#FFFFFF;stroke:#5C595C;stroke-width:1.0409;stroke-miterlimit:10;}
	.st52{fill:none;stroke:#70C8F2;stroke-width:1.0409;stroke-miterlimit:10;}
	.st53{fill:none;stroke:#FFFFFF;stroke-width:1.0409;stroke-miterlimit:10;}
	.st54{fill:none;stroke:#FFFFFF;stroke-width:0.9145;stroke-miterlimit:10;}
	.st55{fill:none;stroke:#54C8E8;stroke-width:0.761;stroke-miterlimit:10;}
	.st56{fill:none;stroke:#54C8E8;stroke-width:0.7529;stroke-miterlimit:10;}
	.st57{fill:#54565A;stroke:#54565A;stroke-width:1.9678;stroke-miterlimit:10;}
	.st58{fill:none;stroke:#FFFFFF;stroke-width:1.9678;stroke-miterlimit:10;}
	.st59{fill:#FFFFFF;stroke:#FFFFFF;stroke-width:1.9678;stroke-miterlimit:10;}
	.st60{fill:#54565A;stroke:#FFFFFF;stroke-width:0.7717;stroke-miterlimit:10;}
	.st61{fill:#54C8E8;stroke:#FFFFFF;stroke-width:1.3622;stroke-miterlimit:10;}
	.st62{fill:#FFFFFF;stroke:#54565A;stroke-width:0.6937;stroke-miterlimit:22.9256;}
	.st63{clip-path:url(#SVGID_2_);}
	.st64{fill:#FFFFFF;stroke:#FFFFFF;stroke-width:0.2482;stroke-miterlimit:22.9256;}
	.st65{fill:none;stroke:#70C8F2;stroke-width:0.4044;stroke-miterlimit:10;}
	.st66{fill:none;stroke:#FFFFFF;stroke-width:0.4044;stroke-miterlimit:10;}
	.st67{fill:none;stroke:#676766;stroke-width:0.927;stroke-miterlimit:10;}
	.st68{fill:#70C8F2;}
	.st69{fill:none;stroke:#70C8F2;stroke-width:0.8582;stroke-miterlimit:10;}
	.st70{fill:none;stroke:#676766;stroke-width:0.9774;stroke-miterlimit:10;}
	.st71{fill:none;stroke:#676766;stroke-width:0.9774;stroke-linecap:round;stroke-miterlimit:10;stroke-dasharray:0,1.7144;}
	.st72{fill:none;stroke:#5C595C;stroke-width:3.0947;stroke-miterlimit:10;}
	.st73{fill:none;stroke:#676766;stroke-width:2.8553;stroke-miterlimit:10;}
	.st74{fill:#FFFFFF;stroke:#676766;stroke-width:0.8965;stroke-miterlimit:10;}
</style>
<g>
	<path class="st6" d="M22.7,4.4C11.3,4.4,2,14.4,2,25.8c0,20.5,27.2,29.5,39.1,9.9l-0.6-0.3C30.3,52.3,4.6,46.2,4.3,25.8
		c0-10.6,8.8-18.5,18.5-18.5c10.5,0,17,7.7,17.1,18.1h-3.5l3.1,3.8l3.1,3.8l3.1-3.8l3.1-3.8h-3.3C46,13.1,35.6,4,22.7,4.4L22.7,4.4z
		"/>
	<path class="st7" d="M6,26h4.7v1.5H6V26L6,26z M20.4,28.2l1.6-1.6c0-0.1,0.1-0.3,0.2-0.4l-8.6-11.5l1.3-1l8.5,11.5l7.2-7.2l2.3,2.3
		l-7,6.9c0,0.4-0.1,0.7-0.3,1l1.7,2.3l-1.3,1l-1.7-2.3c-0.1,0-0.2,0-0.3,0l-1.4,1.4L20.4,28.2L20.4,28.2z M12.6,16.1l-1.5-1.5
		l0.5-0.5l1.5,1.5L12.6,16.1L12.6,16.1z M33.7,16l1.5-1.5l0.5,0.5l-1.5,1.5L33.7,16L33.7,16z M33.7,37.1l1.5,1.5L34.8,39l-1.5-1.5
		L33.7,37.1L33.7,37.1z M12.7,37.2l-1.5,1.5l-0.5-0.5l1.5-1.5L12.7,37.2L12.7,37.2z M23.7,39v4.7h-1.5V39H23.7L23.7,39z M23.7,9.8
		h-1.5v4.7h1.5V9.8z"/>
</g>
</svg>
