<?xml version="1.0" encoding="utf-8"?>
<!-- Generator: Adobe Illustrator 22.0.0, SVG Export Plug-In . SVG Version: 6.00 Build 0)  -->
<svg version="1.1" id="Layer_1" xmlns="http://www.w3.org/2000/svg" xmlns:xlink="http://www.w3.org/1999/xlink" x="0px" y="0px"
	 viewBox="0 0 51 51" style="enable-background:new 0 0 51 51;" xml:space="preserve">
<style type="text/css">
	.st0{fill:none;stroke:#54565A;stroke-width:0.7719;stroke-miterlimit:10;}
	.st1{fill:#54565A;}
	.st2{fill:#FFFFFF;stroke:#FFFFFF;stroke-width:0.1694;stroke-miterlimit:10;}
	.st3{fill:#FFFFFF;}
	.st4{fill:#FFFFFF;stroke:#54565A;stroke-width:0.7719;stroke-miterlimit:10;}
	.st5{fill:#54C8E8;}
	.st6{fill-rule:evenodd;clip-rule:evenodd;fill:#54565A;}
	.st7{fill-rule:evenodd;clip-rule:evenodd;fill:#54C8E8;}
	.st8{fill:#333333;}
	.st9{fill:#FFFFFF;stroke:#54565A;stroke-width:0.7494;stroke-miterlimit:10;}
	.st10{fill:none;stroke:#54565A;stroke-width:0.8122;stroke-miterlimit:10;}
	.st11{fill:#FFFFFF;stroke:#FFFFFF;stroke-width:0.1783;stroke-miterlimit:10;}
	.st12{fill:#FFFFFF;stroke:#54565A;stroke-width:0.8122;stroke-miterlimit:10;}
	.st13{fill:none;stroke:#54C8E8;stroke-width:1.453;stroke-miterlimit:10;}
	.st14{fill:#54565A;stroke:#FFFFFF;stroke-width:0.6423;stroke-miterlimit:10;}
	.st15{fill:#FFFFFF;stroke:#54565A;stroke-width:0.4596;stroke-linecap:round;stroke-linejoin:round;stroke-miterlimit:10;}
	.st16{fill:#FFFFFF;stroke:#54565A;stroke-width:0.9192;stroke-miterlimit:10;}
	.st17{fill:none;stroke:#54C8E8;stroke-width:1.8385;stroke-miterlimit:10;}
	.st18{fill:none;stroke:#FFFFFF;stroke-width:1.1457;stroke-miterlimit:22.9256;}
	.st19{fill:#55575B;}
	.st20{fill:none;stroke:#55575B;stroke-width:0.8005;stroke-miterlimit:10;}
	.st21{fill:#FFFFFF;stroke:#55575B;stroke-width:0.8005;stroke-miterlimit:22.9256;}
	.st22{fill:#5AC3E4;}
	.st23{fill:#FFFFFF;stroke:#55575B;stroke-width:0.6789;stroke-miterlimit:10;}
	.st24{fill:none;stroke:#5A595D;stroke-width:0.9628;stroke-miterlimit:10;}
	.st25{fill:#54565A;stroke:#FFFFFF;stroke-width:0.4838;stroke-miterlimit:10;}
	.st26{fill:#FFFFFF;stroke:#54565A;stroke-width:0.3462;stroke-linecap:round;stroke-linejoin:round;stroke-miterlimit:10;}
	.st27{fill:none;stroke:#67C7E9;stroke-width:2;stroke-miterlimit:10;}
	.st28{fill:none;stroke:#FFFFFF;stroke-width:1.218;stroke-miterlimit:10;}
	.st29{fill:none;stroke:#70C8F2;stroke-width:1.218;stroke-miterlimit:10;}
	.st30{fill:#FFFFFF;stroke:#FFFFFF;stroke-width:0.2526;stroke-miterlimit:10;}
	.st31{fill:#67C7E9;}
	.st32{fill:#5A585B;}
	.st33{fill:none;stroke:#676766;stroke-width:0.921;stroke-miterlimit:10;}
	.st34{fill:#676766;}
	.st35{fill:none;stroke:#70C8F2;stroke-width:0.921;stroke-miterlimit:10;}
	.st36{fill:none;stroke:#54C8E8;stroke-width:0.8973;stroke-miterlimit:10;}
	.st37{fill:#676766;stroke:#676766;stroke-width:1.038;stroke-miterlimit:10;}
	.st38{fill:none;stroke:#FFFFFF;stroke-width:1.038;stroke-miterlimit:10;}
	.st39{fill:none;stroke:#70C8F2;stroke-width:1.038;stroke-miterlimit:10;}
	.st40{fill:none;stroke:#676766;stroke-width:1.038;stroke-miterlimit:10;}
	.st41{fill:none;stroke:#FFFFFF;stroke-width:1.1698;stroke-miterlimit:10;}
	.st42{fill:none;stroke:#70C8F2;stroke-width:1.1698;stroke-miterlimit:10;}
	.st43{fill:#FFFFFF;stroke:#FFFFFF;stroke-width:0.6219;stroke-miterlimit:10;}
	.st44{fill:#54C8E8;stroke:#FFFFFF;stroke-width:0.2073;stroke-miterlimit:10;}
	.st45{fill:#FFFFFF;stroke:#54C8E8;stroke-width:0.8927;stroke-miterlimit:10;}
	.st46{fill:none;stroke:#54C8E8;stroke-width:0.5951;stroke-miterlimit:10;}
	.st47{fill:none;stroke:#FFFFFF;stroke-width:0.5951;stroke-miterlimit:10;}
	.st48{fill:none;stroke:#676766;stroke-width:1.0741;stroke-miterlimit:10;}
	.st49{fill:none;stroke:#70C8F2;stroke-width:1.0741;stroke-miterlimit:10;}
	.st50{fill:none;stroke:#FFFFFF;stroke-width:1.0741;stroke-miterlimit:10;}
	.st51{fill:#FFFFFF;stroke:#5C595C;stroke-width:1.0409;stroke-miterlimit:10;}
	.st52{fill:none;stroke:#70C8F2;stroke-width:1.0409;stroke-miterlimit:10;}
	.st53{fill:none;stroke:#FFFFFF;stroke-width:1.0409;stroke-miterlimit:10;}
	.st54{fill:none;stroke:#FFFFFF;stroke-width:0.9145;stroke-miterlimit:10;}
	.st55{fill:none;stroke:#54C8E8;stroke-width:0.761;stroke-miterlimit:10;}
	.st56{fill:none;stroke:#54C8E8;stroke-width:0.7529;stroke-miterlimit:10;}
	.st57{fill:#54565A;stroke:#54565A;stroke-width:1.9678;stroke-miterlimit:10;}
	.st58{fill:none;stroke:#FFFFFF;stroke-width:1.9678;stroke-miterlimit:10;}
	.st59{fill:#FFFFFF;stroke:#FFFFFF;stroke-width:1.9678;stroke-miterlimit:10;}
	.st60{fill:#54565A;stroke:#FFFFFF;stroke-width:0.7717;stroke-miterlimit:10;}
	.st61{fill:#54C8E8;stroke:#FFFFFF;stroke-width:1.3622;stroke-miterlimit:10;}
	.st62{fill:#FFFFFF;stroke:#54565A;stroke-width:0.6937;stroke-miterlimit:22.9256;}
	.st63{clip-path:url(#SVGID_2_);}
	.st64{fill:#FFFFFF;stroke:#FFFFFF;stroke-width:0.2482;stroke-miterlimit:22.9256;}
	.st65{fill:none;stroke:#70C8F2;stroke-width:0.4044;stroke-miterlimit:10;}
	.st66{fill:none;stroke:#FFFFFF;stroke-width:0.4044;stroke-miterlimit:10;}
	.st67{fill:none;stroke:#676766;stroke-width:0.927;stroke-miterlimit:10;}
	.st68{fill:#70C8F2;}
	.st69{fill:none;stroke:#70C8F2;stroke-width:0.8582;stroke-miterlimit:10;}
	.st70{fill:none;stroke:#676766;stroke-width:0.9774;stroke-miterlimit:10;}
	.st71{fill:none;stroke:#676766;stroke-width:0.9774;stroke-linecap:round;stroke-miterlimit:10;stroke-dasharray:0,1.7144;}
	.st72{fill:none;stroke:#5C595C;stroke-width:3.0947;stroke-miterlimit:10;}
	.st73{fill:none;stroke:#676766;stroke-width:2.8553;stroke-miterlimit:10;}
	.st74{fill:#FFFFFF;stroke:#676766;stroke-width:0.8965;stroke-miterlimit:10;}
</style>
<g>
	<polygon class="st19" points="48.1,25.5 44.5,27.8 47.5,30.9 43.4,32.3 45.5,36 41.2,36.3 42.4,40.5 38.2,39.8 38.3,44.1 
		34.4,42.4 33.5,46.6 30.1,44 28.2,47.9 25.5,44.6 22.8,47.9 20.9,44 17.5,46.6 16.6,42.4 12.7,44.1 12.9,39.8 8.6,40.5 9.8,36.3 
		5.5,36 7.6,32.3 3.5,30.9 6.5,27.8 2.9,25.5 6.5,23.2 3.5,20.1 7.6,18.7 5.5,15 9.8,14.6 8.6,10.5 12.9,11.2 12.7,6.9 16.6,8.6 
		17.5,4.3 20.9,6.9 22.8,3.1 25.5,6.4 28.2,3.1 30.1,6.9 33.5,4.3 34.4,8.6 38.3,6.9 38.2,11.2 42.4,10.5 41.2,14.6 45.5,15 
		43.4,18.7 47.5,20.1 44.5,23.2 	"/>
</g>
<g>
	<path class="st22" d="M18.5,34.9v-8.9c0,0,1.5,0,2.5-1.6c1.1-1.6,2.2-3.4,2.2-3.4s1.3-1.2,1.6-2.5c0.3-1.3,0.5-3,1-3.1
		c0.5-0.2,2.6,0.4,2.1,3.3c-0.5,2.9-1,3.2-1,3.2s-0.9,1.6,0.4,1.6c1.4,0,3.6,0,3.6,0s2.9-0.4,2.9,1.4c0,1.9-1.2,2-1.2,2
		S34,27,34,28.5c-0.1,1.2-1.2,1.5-1.2,1.5s1.1,0.5,1.1,1.7c-0.1,1.3-1.3,1.6-2.3,1.5c0,0,0.9,0.2,0.9,1.4c0,1.2-1.3,1.1-1.3,1.1
		s-6.4,0-7.6-0.2C22.2,35.4,19.1,34.7,18.5,34.9z"/>
	<rect x="12.5" y="25.3" class="st23" width="5" height="10.3"/>
	<circle class="st22" cx="15.7" cy="33.1" r="0.9"/>
</g>
</svg>
