<?xml version="1.0" encoding="utf-8"?>
<!-- Generator: Adobe Illustrator 22.0.0, SVG Export Plug-In . SVG Version: 6.00 Build 0)  -->
<svg version="1.1" id="Layer_1" xmlns="http://www.w3.org/2000/svg" xmlns:xlink="http://www.w3.org/1999/xlink" x="0px" y="0px"
	 viewBox="0 0 51 51" style="enable-background:new 0 0 51 51;" xml:space="preserve">
<style type="text/css">
	.st0{fill:none;stroke:#54565A;stroke-width:0.7719;stroke-miterlimit:10;}
	.st1{fill:#54565A;}
	.st2{fill:#FFFFFF;stroke:#FFFFFF;stroke-width:0.1694;stroke-miterlimit:10;}
	.st3{fill:#FFFFFF;}
	.st4{fill:#FFFFFF;stroke:#54565A;stroke-width:0.7719;stroke-miterlimit:10;}
	.st5{fill:#54C8E8;}
	.st6{fill-rule:evenodd;clip-rule:evenodd;fill:#54565A;}
	.st7{fill-rule:evenodd;clip-rule:evenodd;fill:#54C8E8;}
	.st8{fill:#333333;}
	.st9{fill:#FFFFFF;stroke:#54565A;stroke-width:0.7494;stroke-miterlimit:10;}
	.st10{fill:none;stroke:#54565A;stroke-width:0.8122;stroke-miterlimit:10;}
	.st11{fill:#FFFFFF;stroke:#FFFFFF;stroke-width:0.1783;stroke-miterlimit:10;}
	.st12{fill:#FFFFFF;stroke:#54565A;stroke-width:0.8122;stroke-miterlimit:10;}
	.st13{fill:none;stroke:#54C8E8;stroke-width:1.453;stroke-miterlimit:10;}
	.st14{fill:#54565A;stroke:#FFFFFF;stroke-width:0.6423;stroke-miterlimit:10;}
	.st15{fill:#FFFFFF;stroke:#54565A;stroke-width:0.4596;stroke-linecap:round;stroke-linejoin:round;stroke-miterlimit:10;}
	.st16{fill:#FFFFFF;stroke:#54565A;stroke-width:0.9192;stroke-miterlimit:10;}
	.st17{fill:none;stroke:#54C8E8;stroke-width:1.8385;stroke-miterlimit:10;}
	.st18{fill:none;stroke:#FFFFFF;stroke-width:1.1457;stroke-miterlimit:22.9256;}
	.st19{fill:#55575B;}
	.st20{fill:none;stroke:#55575B;stroke-width:0.8005;stroke-miterlimit:10;}
	.st21{fill:#FFFFFF;stroke:#55575B;stroke-width:0.8005;stroke-miterlimit:22.9256;}
	.st22{fill:#5AC3E4;}
	.st23{fill:#FFFFFF;stroke:#55575B;stroke-width:0.6789;stroke-miterlimit:10;}
	.st24{fill:none;stroke:#5A595D;stroke-width:0.9628;stroke-miterlimit:10;}
	.st25{fill:#54565A;stroke:#FFFFFF;stroke-width:0.4838;stroke-miterlimit:10;}
	.st26{fill:#FFFFFF;stroke:#54565A;stroke-width:0.3462;stroke-linecap:round;stroke-linejoin:round;stroke-miterlimit:10;}
	.st27{fill:none;stroke:#67C7E9;stroke-width:2;stroke-miterlimit:10;}
	.st28{fill:none;stroke:#FFFFFF;stroke-width:1.218;stroke-miterlimit:10;}
	.st29{fill:none;stroke:#70C8F2;stroke-width:1.218;stroke-miterlimit:10;}
	.st30{fill:#FFFFFF;stroke:#FFFFFF;stroke-width:0.2526;stroke-miterlimit:10;}
	.st31{fill:#67C7E9;}
	.st32{fill:#5A585B;}
	.st33{fill:none;stroke:#676766;stroke-width:0.921;stroke-miterlimit:10;}
	.st34{fill:#676766;}
	.st35{fill:none;stroke:#70C8F2;stroke-width:0.921;stroke-miterlimit:10;}
	.st36{fill:none;stroke:#54C8E8;stroke-width:0.8973;stroke-miterlimit:10;}
	.st37{fill:#676766;stroke:#676766;stroke-width:1.038;stroke-miterlimit:10;}
	.st38{fill:none;stroke:#FFFFFF;stroke-width:1.038;stroke-miterlimit:10;}
	.st39{fill:none;stroke:#70C8F2;stroke-width:1.038;stroke-miterlimit:10;}
	.st40{fill:none;stroke:#676766;stroke-width:1.038;stroke-miterlimit:10;}
	.st41{fill:none;stroke:#FFFFFF;stroke-width:1.1698;stroke-miterlimit:10;}
	.st42{fill:none;stroke:#70C8F2;stroke-width:1.1698;stroke-miterlimit:10;}
	.st43{fill:#FFFFFF;stroke:#FFFFFF;stroke-width:0.6219;stroke-miterlimit:10;}
	.st44{fill:#54C8E8;stroke:#FFFFFF;stroke-width:0.2073;stroke-miterlimit:10;}
	.st45{fill:#FFFFFF;stroke:#54C8E8;stroke-width:0.8927;stroke-miterlimit:10;}
	.st46{fill:none;stroke:#54C8E8;stroke-width:0.5951;stroke-miterlimit:10;}
	.st47{fill:none;stroke:#FFFFFF;stroke-width:0.5951;stroke-miterlimit:10;}
	.st48{fill:none;stroke:#676766;stroke-width:1.0741;stroke-miterlimit:10;}
	.st49{fill:none;stroke:#70C8F2;stroke-width:1.0741;stroke-miterlimit:10;}
	.st50{fill:none;stroke:#FFFFFF;stroke-width:1.0741;stroke-miterlimit:10;}
	.st51{fill:#FFFFFF;stroke:#5C595C;stroke-width:1.0409;stroke-miterlimit:10;}
	.st52{fill:none;stroke:#70C8F2;stroke-width:1.0409;stroke-miterlimit:10;}
	.st53{fill:none;stroke:#FFFFFF;stroke-width:1.0409;stroke-miterlimit:10;}
	.st54{fill:none;stroke:#FFFFFF;stroke-width:0.9145;stroke-miterlimit:10;}
	.st55{fill:none;stroke:#54C8E8;stroke-width:0.761;stroke-miterlimit:10;}
	.st56{fill:none;stroke:#54C8E8;stroke-width:0.7529;stroke-miterlimit:10;}
	.st57{fill:#54565A;stroke:#54565A;stroke-width:1.9678;stroke-miterlimit:10;}
	.st58{fill:none;stroke:#FFFFFF;stroke-width:1.9678;stroke-miterlimit:10;}
	.st59{fill:#FFFFFF;stroke:#FFFFFF;stroke-width:1.9678;stroke-miterlimit:10;}
	.st60{fill:#54565A;stroke:#FFFFFF;stroke-width:0.7717;stroke-miterlimit:10;}
	.st61{fill:#54C8E8;stroke:#FFFFFF;stroke-width:1.3622;stroke-miterlimit:10;}
	.st62{fill:#FFFFFF;stroke:#54565A;stroke-width:0.6937;stroke-miterlimit:22.9256;}
	.st63{clip-path:url(#SVGID_2_);}
	.st64{fill:#FFFFFF;stroke:#FFFFFF;stroke-width:0.2482;stroke-miterlimit:22.9256;}
	.st65{fill:none;stroke:#70C8F2;stroke-width:0.4044;stroke-miterlimit:10;}
	.st66{fill:none;stroke:#FFFFFF;stroke-width:0.4044;stroke-miterlimit:10;}
	.st67{fill:none;stroke:#676766;stroke-width:0.927;stroke-miterlimit:10;}
	.st68{fill:#70C8F2;}
	.st69{fill:none;stroke:#70C8F2;stroke-width:0.8582;stroke-miterlimit:10;}
	.st70{fill:none;stroke:#676766;stroke-width:0.9774;stroke-miterlimit:10;}
	.st71{fill:none;stroke:#676766;stroke-width:0.9774;stroke-linecap:round;stroke-miterlimit:10;stroke-dasharray:0,1.7144;}
	.st72{fill:none;stroke:#5C595C;stroke-width:3.0947;stroke-miterlimit:10;}
	.st73{fill:none;stroke:#676766;stroke-width:2.8553;stroke-miterlimit:10;}
	.st74{fill:#FFFFFF;stroke:#676766;stroke-width:0.8965;stroke-miterlimit:10;}
</style>
<g>
	<polyline class="st10" points="4.4,14.8 40,14.8 40,33.4 	"/>
	<polyline class="st10" points="7.6,11.7 43.2,11.7 43.2,30.3 	"/>
	<rect x="1.8" y="17.8" class="st1" width="35.5" height="18.6"/>
	<path class="st11" d="M32.7,34.5l-26.3,0l-0.1-0.6c-0.1-1.1-1-2-2.1-2.1l-0.6-0.1v-9.1l0.6-0.1c1.1-0.1,2-1,2.1-2.1l0.1-0.6h26.3
		l0.1,0.6c0.1,1.1,1,2,2.1,2.1l0.6,0.1v9.1l-0.7,0.1c-1.1,0.1-2,1-2.1,2.1L32.7,34.5z M6.8,34l25.4,0l0-0.2c0.1-1.3,1.2-2.4,2.6-2.5
		l0.2,0v-8.3l-0.2,0c-1.3-0.1-2.4-1.2-2.6-2.6l0-0.2H6.8l0,0.2c-0.1,1.3-1.2,2.4-2.5,2.6l-0.2,0v8.3l0.2,0c1.3,0.1,2.4,1.2,2.5,2.5
		L6.8,34z"/>
	<g>
		<g>
			<g>
				<path class="st3" d="M20.1,31.7l-3.6-4.7l0.8-0.1c0.7-0.1,1.3-0.3,1.7-0.6c0.5-0.5,0.5-1,0.5-1c0.1-1.7-1.9-2-1.9-2l0.1-0.9
					c1,0.1,2.8,0.9,2.7,2.9c0,0.2-0.1,1-0.8,1.7c-0.4,0.4-0.9,0.6-1.4,0.8l2.6,3.4L20.1,31.7z"/>
			</g>
		</g>
	</g>
	<g>
		<rect x="16.4" y="22.4" class="st3" width="6.3" height="0.9"/>
	</g>
	<g>
		<rect x="17" y="24.9" class="st3" width="5.2" height="0.9"/>
	</g>
	<circle class="st12" cx="42.4" cy="32.5" r="6.8"/>
	<line class="st13" x1="46.2" y1="32.5" x2="38.6" y2="32.5"/>
</g>
</svg>
